<svg width="44" height="45" viewBox="0 0 44 45" fill="none" xmlns="http://www.w3.org/2000/svg">
<path d="M42.5593 31.5548L33.0758 27.4904C32.6707 27.3178 32.2204 27.2814 31.7929 27.3868C31.3653 27.4921 30.9835 27.7336 30.705 28.0747L26.5051 33.2059C19.9139 30.0982 14.6095 24.7938 11.5018 18.2026L16.633 14.0027C16.9748 13.7247 17.2167 13.3429 17.3222 12.9151C17.4276 12.4873 17.3908 12.0369 17.2173 11.6319L13.1529 2.14838C12.9625 1.71181 12.6257 1.35537 12.2006 1.14051C11.7755 0.925651 11.2888 0.865849 10.8244 0.971416L2.01829 3.00359C1.57051 3.10699 1.171 3.35912 0.884963 3.71882C0.598927 4.07852 0.443256 4.52455 0.443359 4.98411C0.443359 26.703 18.0471 44.2728 39.732 44.2728C40.1917 44.2731 40.638 44.1175 40.9978 43.8315C41.3577 43.5454 41.61 43.1458 41.7134 42.6979L43.7456 33.8918C43.8505 33.4251 43.7894 32.9364 43.5729 32.5099C43.3564 32.0833 42.9979 31.7456 42.5593 31.5548Z" fill="#0EB062"/>
</svg>
